<svg width="287" height="240" viewBox="0 0 287 240" fill="none" xmlns="http://www.w3.org/2000/svg">
<path fill-rule="evenodd" clip-rule="evenodd" d="M104 149.75L104 179.101C104 179.416 104 179.573 104.061 179.693C104.115 179.799 104.201 179.885 104.307 179.939C104.427 180 104.584 180 104.899 180L157.677 180C185.47 180 208 159.686 208 134.625C208 109.564 185.47 89.25 157.677 89.25L104 89.25L104 59L50.3226 59C22.5301 59 -7.09369e-06 79.3143 -9.30402e-06 104.375C-2.43121e-05 129.436 22.5301 149.75 50.3226 149.75L104 149.75ZM104 119.5L157.677 119.5C166.942 119.5 174.452 126.271 174.452 134.625C174.452 142.979 166.942 149.75 157.677 149.75L104 149.75L104 119.5ZM104 119.5L104 89.25L50.3226 89.25C41.3931 89.25 34.0932 95.541 33.5775 103.476C33.5584 103.77 33.5489 103.917 33.6042 104.042C33.6519 104.151 33.7375 104.246 33.8406 104.304C33.9599 104.372 34.1318 104.379 34.4755 104.392C49.3271 104.955 24.4637 119.5 33.5484 119.5L104 119.5Z" fill="#1F03F1"/>
</svg>
