<svg width="102" height="19" viewBox="0 0 102 19" fill="none" xmlns="http://www.w3.org/2000/svg">
<path d="M0.608 18V1.2H6.92C8.28 1.2 9.4 1.432 10.28 1.896C11.176 2.344 11.84 2.96 12.272 3.744C12.72 4.528 12.944 5.416 12.944 6.408C12.944 7.32 12.728 8.168 12.296 8.952C11.88 9.736 11.224 10.376 10.328 10.872C9.448 11.352 8.312 11.592 6.92 11.592H3.848V18H0.608ZM3.848 8.976H6.728C7.752 8.976 8.488 8.744 8.936 8.28C9.4 7.816 9.632 7.192 9.632 6.408C9.632 5.592 9.4 4.96 8.936 4.512C8.488 4.064 7.752 3.84 6.728 3.84H3.848V8.976ZM19.3745 18.288C18.2385 18.288 17.2065 18.024 16.2785 17.496C15.3665 16.968 14.6385 16.232 14.0945 15.288C13.5505 14.344 13.2785 13.264 13.2785 12.048C13.2785 10.816 13.5505 9.736 14.0945 8.808C14.6385 7.864 15.3745 7.128 16.3025 6.6C17.2305 6.072 18.2625 5.808 19.3985 5.808C20.5505 5.808 21.5905 6.072 22.5185 6.6C23.4465 7.128 24.1745 7.864 24.7025 8.808C25.2465 9.736 25.5185 10.816 25.5185 12.048C25.5185 13.28 25.2465 14.368 24.7025 15.312C24.1585 16.24 23.4225 16.968 22.4945 17.496C21.5825 18.024 20.5425 18.288 19.3745 18.288ZM19.3985 15.48C19.9105 15.48 20.3745 15.352 20.7905 15.096C21.2225 14.84 21.5665 14.456 21.8225 13.944C22.0945 13.432 22.2305 12.8 22.2305 12.048C22.2305 11.28 22.1025 10.648 21.8465 10.152C21.5905 9.64 21.2465 9.256 20.8145 9C20.3985 8.744 19.9345 8.616 19.4225 8.616C18.9105 8.616 18.4385 8.744 18.0065 9C17.5745 9.256 17.2305 9.64 16.9745 10.152C16.7185 10.648 16.5905 11.28 16.5905 12.048C16.5905 12.8 16.7185 13.432 16.9745 13.944C17.2305 14.456 17.5665 14.84 17.9825 15.096C18.4145 15.352 18.8865 15.48 19.3985 15.48ZM27.3041 18V6.096H30.1841L30.4961 8.328C30.7841 7.816 31.1361 7.376 31.5521 7.008C31.9841 6.624 32.4721 6.328 33.0161 6.12C33.5761 5.912 34.1841 5.808 34.8401 5.808V9.24H33.9521C33.4561 9.24 32.9921 9.296 32.5601 9.408C32.1441 9.52 31.7841 9.704 31.4801 9.96C31.1761 10.216 30.9441 10.568 30.7841 11.016C30.6241 11.448 30.5441 12 30.5441 12.672V18H27.3041ZM41.3769 18C40.5289 18 39.7849 17.872 39.1449 17.616C38.5209 17.344 38.0329 16.904 37.6809 16.296C37.3289 15.672 37.1529 14.824 37.1529 13.752V8.808H35.1129V6.096H37.1529L37.5129 2.856H40.3929V6.096H43.5609V8.808H40.3929V13.8C40.3929 14.344 40.5129 14.72 40.7529 14.928C40.9929 15.136 41.4009 15.24 41.9769 15.24H43.4889V18H41.3769ZM49.3396 18.288C48.3316 18.288 47.4916 18.128 46.8196 17.808C46.1636 17.488 45.6756 17.056 45.3556 16.512C45.0356 15.968 44.8756 15.368 44.8756 14.712C44.8756 13.976 45.0596 13.336 45.4276 12.792C45.8116 12.232 46.3876 11.792 47.1556 11.472C47.9236 11.152 48.8916 10.992 50.0596 10.992H53.0596C53.0596 10.416 52.9716 9.944 52.7956 9.576C52.6356 9.192 52.3796 8.912 52.0276 8.736C51.6916 8.544 51.2596 8.448 50.7316 8.448C50.1076 8.448 49.5716 8.584 49.1236 8.856C48.6916 9.128 48.4196 9.544 48.3076 10.104H45.1636C45.2596 9.224 45.5556 8.464 46.0516 7.824C46.5476 7.184 47.2036 6.688 48.0196 6.336C48.8356 5.984 49.7396 5.808 50.7316 5.808C51.8676 5.808 52.8516 6 53.6836 6.384C54.5156 6.752 55.1556 7.304 55.6036 8.04C56.0676 8.76 56.2996 9.64 56.2996 10.68V18H53.5636L53.2036 16.152C53.0436 16.472 52.8356 16.76 52.5796 17.016C52.3396 17.272 52.0596 17.496 51.7396 17.688C51.4196 17.88 51.0596 18.024 50.6596 18.12C50.2596 18.232 49.8196 18.288 49.3396 18.288ZM50.1076 15.792C50.5396 15.792 50.9156 15.72 51.2356 15.576C51.5716 15.416 51.8516 15.208 52.0756 14.952C52.3156 14.696 52.4996 14.4 52.6276 14.064C52.7716 13.728 52.8676 13.368 52.9156 12.984H50.4196C49.9236 12.984 49.5156 13.048 49.1956 13.176C48.8916 13.288 48.6676 13.456 48.5236 13.68C48.3796 13.888 48.3076 14.136 48.3076 14.424C48.3076 14.712 48.3796 14.96 48.5236 15.168C48.6676 15.376 48.8756 15.536 49.1476 15.648C49.4196 15.744 49.7396 15.792 50.1076 15.792ZM58.7724 18V4.824C58.7724 3.816 58.9404 3.016 59.2764 2.424C59.6124 1.832 60.0924 1.4 60.7164 1.128C61.3404 0.855999 62.0764 0.719999 62.9244 0.719999H64.2684V3.48H63.4284C62.9164 3.48 62.5484 3.584 62.3244 3.792C62.1164 3.984 62.0124 4.328 62.0124 4.824V18H58.7724ZM57.1404 8.808V6.096H64.5084V8.808H57.1404ZM71.2464 18.288C70.1104 18.288 69.0784 18.024 68.1504 17.496C67.2384 16.968 66.5104 16.232 65.9664 15.288C65.4224 14.344 65.1504 13.264 65.1504 12.048C65.1504 10.816 65.4224 9.736 65.9664 8.808C66.5104 7.864 67.2464 7.128 68.1744 6.6C69.1024 6.072 70.1344 5.808 71.2704 5.808C72.4224 5.808 73.4624 6.072 74.3904 6.6C75.3184 7.128 76.0464 7.864 76.5744 8.808C77.1184 9.736 77.3904 10.816 77.3904 12.048C77.3904 13.28 77.1184 14.368 76.5744 15.312C76.0304 16.24 75.2944 16.968 74.3664 17.496C73.4544 18.024 72.4144 18.288 71.2464 18.288ZM71.2704 15.48C71.7824 15.48 72.2464 15.352 72.6624 15.096C73.0944 14.84 73.4384 14.456 73.6944 13.944C73.9664 13.432 74.1024 12.8 74.1024 12.048C74.1024 11.28 73.9744 10.648 73.7184 10.152C73.4624 9.64 73.1184 9.256 72.6864 9C72.2704 8.744 71.8064 8.616 71.2944 8.616C70.7824 8.616 70.3104 8.744 69.8784 9C69.4464 9.256 69.1024 9.64 68.8464 10.152C68.5904 10.648 68.4624 11.28 68.4624 12.048C68.4624 12.8 68.5904 13.432 68.8464 13.944C69.1024 14.456 69.4384 14.84 69.8544 15.096C70.2864 15.352 70.7584 15.48 71.2704 15.48ZM79.1759 18V0.719999H82.4159V18H79.1759ZM84.6635 18V6.096H87.9035V18H84.6635ZM86.2715 4.368C85.6955 4.368 85.2155 4.2 84.8315 3.864C84.4635 3.512 84.2795 3.072 84.2795 2.544C84.2795 2.016 84.4635 1.584 84.8315 1.248C85.2155 0.895999 85.6955 0.719999 86.2715 0.719999C86.8635 0.719999 87.3435 0.895999 87.7115 1.248C88.0955 1.584 88.2875 2.016 88.2875 2.544C88.2875 3.072 88.0955 3.512 87.7115 3.864C87.3435 4.2 86.8635 4.368 86.2715 4.368ZM95.8586 18.288C94.7226 18.288 93.6906 18.024 92.7626 17.496C91.8506 16.968 91.1226 16.232 90.5786 15.288C90.0346 14.344 89.7626 13.264 89.7626 12.048C89.7626 10.816 90.0346 9.736 90.5786 8.808C91.1226 7.864 91.8586 7.128 92.7866 6.6C93.7146 6.072 94.7466 5.808 95.8826 5.808C97.0346 5.808 98.0746 6.072 99.0026 6.6C99.9306 7.128 100.659 7.864 101.187 8.808C101.731 9.736 102.003 10.816 102.003 12.048C102.003 13.28 101.731 14.368 101.187 15.312C100.643 16.24 99.9066 16.968 98.9786 17.496C98.0666 18.024 97.0266 18.288 95.8586 18.288ZM95.8826 15.48C96.3946 15.48 96.8586 15.352 97.2746 15.096C97.7066 14.84 98.0506 14.456 98.3066 13.944C98.5786 13.432 98.7146 12.8 98.7146 12.048C98.7146 11.28 98.5866 10.648 98.3306 10.152C98.0746 9.64 97.7306 9.256 97.2986 9C96.8826 8.744 96.4186 8.616 95.9066 8.616C95.3946 8.616 94.9226 8.744 94.4906 9C94.0586 9.256 93.7146 9.64 93.4586 10.152C93.2026 10.648 93.0746 11.28 93.0746 12.048C93.0746 12.8 93.2026 13.432 93.4586 13.944C93.7146 14.456 94.0506 14.84 94.4666 15.096C94.8986 15.352 95.3706 15.48 95.8826 15.48Z" fill="white"/>
</svg>
