<svg width="172" height="48" viewBox="0 0 172 48" fill="none" xmlns="http://www.w3.org/2000/svg">
<rect width="172" height="48" rx="24" fill="#65F67B"/>
<path d="M34.9166 33V16.2H41.2286C42.5886 16.2 43.7086 16.432 44.5886 16.896C45.4846 17.344 46.1486 17.96 46.5806 18.744C47.0286 19.528 47.2526 20.416 47.2526 21.408C47.2526 22.32 47.0366 23.168 46.6046 23.952C46.1886 24.736 45.5326 25.376 44.6366 25.872C43.7566 26.352 42.6206 26.592 41.2286 26.592H38.1566V33H34.9166ZM38.1566 23.976H41.0366C42.0606 23.976 42.7966 23.744 43.2446 23.28C43.7086 22.816 43.9406 22.192 43.9406 21.408C43.9406 20.592 43.7086 19.96 43.2446 19.512C42.7966 19.064 42.0606 18.84 41.0366 18.84H38.1566V23.976ZM53.6831 33.288C52.5471 33.288 51.5151 33.024 50.5871 32.496C49.6751 31.968 48.9471 31.232 48.4031 30.288C47.8591 29.344 47.5871 28.264 47.5871 27.048C47.5871 25.816 47.8591 24.736 48.4031 23.808C48.9471 22.864 49.6831 22.128 50.6111 21.6C51.5391 21.072 52.5711 20.808 53.7071 20.808C54.8591 20.808 55.8991 21.072 56.8271 21.6C57.7551 22.128 58.4831 22.864 59.0111 23.808C59.5551 24.736 59.8271 25.816 59.8271 27.048C59.8271 28.28 59.5551 29.368 59.0111 30.312C58.4671 31.24 57.7311 31.968 56.8031 32.496C55.8911 33.024 54.8511 33.288 53.6831 33.288ZM53.7071 30.48C54.2191 30.48 54.6831 30.352 55.0991 30.096C55.5311 29.84 55.8751 29.456 56.1311 28.944C56.4031 28.432 56.5391 27.8 56.5391 27.048C56.5391 26.28 56.4111 25.648 56.1551 25.152C55.8991 24.64 55.5551 24.256 55.1231 24C54.7071 23.744 54.2431 23.616 53.7311 23.616C53.2191 23.616 52.7471 23.744 52.3151 24C51.8831 24.256 51.5391 24.64 51.2831 25.152C51.0271 25.648 50.8991 26.28 50.8991 27.048C50.8991 27.8 51.0271 28.432 51.2831 28.944C51.5391 29.456 51.8751 29.84 52.2911 30.096C52.7231 30.352 53.1951 30.48 53.7071 30.48ZM61.6127 33V21.096H64.4927L64.8047 23.328C65.0927 22.816 65.4447 22.376 65.8607 22.008C66.2927 21.624 66.7807 21.328 67.3247 21.12C67.8847 20.912 68.4927 20.808 69.1487 20.808V24.24H68.2607C67.7647 24.24 67.3007 24.296 66.8687 24.408C66.4527 24.52 66.0927 24.704 65.7887 24.96C65.4847 25.216 65.2527 25.568 65.0927 26.016C64.9327 26.448 64.8527 27 64.8527 27.672V33H61.6127ZM75.6855 33C74.8375 33 74.0935 32.872 73.4535 32.616C72.8295 32.344 72.3415 31.904 71.9895 31.296C71.6375 30.672 71.4615 29.824 71.4615 28.752V23.808H69.4215V21.096H71.4615L71.8215 17.856H74.7015V21.096H77.8695V23.808H74.7015V28.8C74.7015 29.344 74.8215 29.72 75.0615 29.928C75.3015 30.136 75.7095 30.24 76.2855 30.24H77.7975V33H75.6855ZM83.6482 33.288C82.6402 33.288 81.8002 33.128 81.1282 32.808C80.4722 32.488 79.9842 32.056 79.6642 31.512C79.3442 30.968 79.1842 30.368 79.1842 29.712C79.1842 28.976 79.3682 28.336 79.7362 27.792C80.1202 27.232 80.6962 26.792 81.4642 26.472C82.2322 26.152 83.2002 25.992 84.3682 25.992H87.3682C87.3682 25.416 87.2802 24.944 87.1042 24.576C86.9442 24.192 86.6882 23.912 86.3362 23.736C86.0002 23.544 85.5682 23.448 85.0402 23.448C84.4162 23.448 83.8802 23.584 83.4322 23.856C83.0002 24.128 82.7282 24.544 82.6162 25.104H79.4722C79.5682 24.224 79.8642 23.464 80.3602 22.824C80.8562 22.184 81.5122 21.688 82.3282 21.336C83.1442 20.984 84.0482 20.808 85.0402 20.808C86.1762 20.808 87.1602 21 87.9922 21.384C88.8242 21.752 89.4642 22.304 89.9122 23.04C90.3762 23.76 90.6082 24.64 90.6082 25.68V33H87.8722L87.5122 31.152C87.3522 31.472 87.1442 31.76 86.8882 32.016C86.6482 32.272 86.3682 32.496 86.0482 32.688C85.7282 32.88 85.3682 33.024 84.9682 33.12C84.5682 33.232 84.1282 33.288 83.6482 33.288ZM84.4162 30.792C84.8482 30.792 85.2242 30.72 85.5442 30.576C85.8802 30.416 86.1602 30.208 86.3842 29.952C86.6242 29.696 86.8082 29.4 86.9362 29.064C87.0802 28.728 87.1762 28.368 87.2242 27.984H84.7282C84.2322 27.984 83.8242 28.048 83.5042 28.176C83.2002 28.288 82.9762 28.456 82.8322 28.68C82.6882 28.888 82.6162 29.136 82.6162 29.424C82.6162 29.712 82.6882 29.96 82.8322 30.168C82.9762 30.376 83.1842 30.536 83.4562 30.648C83.7282 30.744 84.0482 30.792 84.4162 30.792ZM93.081 33V19.824C93.081 18.816 93.249 18.016 93.585 17.424C93.921 16.832 94.401 16.4 95.025 16.128C95.649 15.856 96.385 15.72 97.233 15.72H98.577V18.48H97.737C97.225 18.48 96.857 18.584 96.633 18.792C96.425 18.984 96.321 19.328 96.321 19.824V33H93.081ZM91.449 23.808V21.096H98.817V23.808H91.449ZM105.555 33.288C104.419 33.288 103.387 33.024 102.459 32.496C101.547 31.968 100.819 31.232 100.275 30.288C99.731 29.344 99.459 28.264 99.459 27.048C99.459 25.816 99.731 24.736 100.275 23.808C100.819 22.864 101.555 22.128 102.483 21.6C103.411 21.072 104.443 20.808 105.579 20.808C106.731 20.808 107.771 21.072 108.699 21.6C109.627 22.128 110.355 22.864 110.883 23.808C111.427 24.736 111.699 25.816 111.699 27.048C111.699 28.28 111.427 29.368 110.883 30.312C110.339 31.24 109.603 31.968 108.675 32.496C107.763 33.024 106.723 33.288 105.555 33.288ZM105.579 30.48C106.091 30.48 106.555 30.352 106.971 30.096C107.403 29.84 107.747 29.456 108.003 28.944C108.275 28.432 108.411 27.8 108.411 27.048C108.411 26.28 108.283 25.648 108.027 25.152C107.771 24.64 107.427 24.256 106.995 24C106.579 23.744 106.115 23.616 105.603 23.616C105.091 23.616 104.619 23.744 104.187 24C103.755 24.256 103.411 24.64 103.155 25.152C102.899 25.648 102.771 26.28 102.771 27.048C102.771 27.8 102.899 28.432 103.155 28.944C103.411 29.456 103.747 29.84 104.163 30.096C104.595 30.352 105.067 30.48 105.579 30.48ZM113.485 33V15.72H116.725V33H113.485ZM118.972 33V21.096H122.212V33H118.972ZM120.58 19.368C120.004 19.368 119.524 19.2 119.14 18.864C118.772 18.512 118.588 18.072 118.588 17.544C118.588 17.016 118.772 16.584 119.14 16.248C119.524 15.896 120.004 15.72 120.58 15.72C121.172 15.72 121.652 15.896 122.02 16.248C122.404 16.584 122.596 17.016 122.596 17.544C122.596 18.072 122.404 18.512 122.02 18.864C121.652 19.2 121.172 19.368 120.58 19.368ZM130.167 33.288C129.031 33.288 127.999 33.024 127.071 32.496C126.159 31.968 125.431 31.232 124.887 30.288C124.343 29.344 124.071 28.264 124.071 27.048C124.071 25.816 124.343 24.736 124.887 23.808C125.431 22.864 126.167 22.128 127.095 21.6C128.023 21.072 129.055 20.808 130.191 20.808C131.343 20.808 132.383 21.072 133.311 21.6C134.239 22.128 134.967 22.864 135.495 23.808C136.039 24.736 136.311 25.816 136.311 27.048C136.311 28.28 136.039 29.368 135.495 30.312C134.951 31.24 134.215 31.968 133.287 32.496C132.375 33.024 131.335 33.288 130.167 33.288ZM130.191 30.48C130.703 30.48 131.167 30.352 131.583 30.096C132.015 29.84 132.359 29.456 132.615 28.944C132.887 28.432 133.023 27.8 133.023 27.048C133.023 26.28 132.895 25.648 132.639 25.152C132.383 24.64 132.039 24.256 131.607 24C131.191 23.744 130.727 23.616 130.215 23.616C129.703 23.616 129.231 23.744 128.799 24C128.367 24.256 128.023 24.64 127.767 25.152C127.511 25.648 127.383 26.28 127.383 27.048C127.383 27.8 127.511 28.432 127.767 28.944C128.023 29.456 128.359 29.84 128.775 30.096C129.207 30.352 129.679 30.48 130.191 30.48Z" fill="white"/>
</svg>
